<?xml version="1.0" standalone="no"?><!DOCTYPE svg PUBLIC "-//W3C//DTD SVG 1.1//EN" "http://www.w3.org/Graphics/SVG/1.1/DTD/svg11.dtd"><svg t="1565855955066" class="icon" viewBox="0 0 1024 1024" version="1.1" xmlns="http://www.w3.org/2000/svg" p-id="5620" xmlns:xlink="http://www.w3.org/1999/xlink" width="200" height="200"><defs><style type="text/css"></style></defs><path d="M512 512m-414 0a414 414 0 1 0 828 0 414 414 0 1 0-828 0Z" fill="#F0C48A" p-id="5621"></path><path d="M237 62.2h549.8v901.2H237z" fill="#D3E6F8" p-id="5622"></path><path d="M716 97.8h71v850.4H716z" fill="#7BABF1" p-id="5623"></path><path d="M331.4 224h361.2v361.2H331.4z" fill="#FFFFFF" p-id="5624"></path><path d="M512 773.6m-66.8 0a66.8 66.8 0 1 0 133.6 0 66.8 66.8 0 1 0-133.6 0Z" fill="#7BABF1" p-id="5625"></path><path d="M787 975h-550c-6.4 0-11.8-5.2-11.8-11.8V62.2c0-6.4 5.2-11.8 11.8-11.8h549.8c6.4 0 11.8 5.2 11.8 11.8v901.2c0 6.4-5.2 11.6-11.6 11.6z m-538.2-23.4h526.4V73.8H248.8v877.8z" fill="#4C4372" p-id="5626"></path><path d="M512 852.2c-43.4 0-78.6-35.2-78.6-78.6 0-43.4 35.2-78.6 78.6-78.6 43.4 0 78.6 35.2 78.6 78.6 0 43.2-35.2 78.6-78.6 78.6z m0-133.8c-30.4 0-55.2 24.8-55.2 55.2 0 30.4 24.8 55.2 55.2 55.2 30.4 0 55.2-24.8 55.2-55.2 0-30.4-24.8-55.2-55.2-55.2z" fill="#4C4372" p-id="5627"></path><path d="M344.19527 782.333187a22.8 22.8 0 1 0 42.077865-17.573083 22.8 22.8 0 1 0-42.077865 17.573083Z" fill="#4C4372" p-id="5628"></path><path d="M344.155036 849.14045a22.8 22.8 0 1 0 42.077865-17.573084 22.8 22.8 0 1 0-42.077865 17.573084Z" fill="#4C4372" p-id="5629"></path><path d="M344.158274 715.340602a22.8 22.8 0 1 0 42.077865-17.573083 22.8 22.8 0 1 0-42.077865 17.573083Z" fill="#4C4372" p-id="5630"></path><path d="M637.80068 782.36818a22.8 22.8 0 1 0 42.077865-17.573083 22.8 22.8 0 1 0-42.077865 17.573083Z" fill="#4C4372" p-id="5631"></path><path d="M637.760601 849.176213a22.8 22.8 0 1 0 42.077865-17.573083 22.8 22.8 0 1 0-42.077865 17.573083Z" fill="#4C4372" p-id="5632"></path><path d="M637.763838 715.376366a22.8 22.8 0 1 0 42.077865-17.573084 22.8 22.8 0 1 0-42.077865 17.573084Z" fill="#4C4372" p-id="5633"></path><path d="M623.4 225h71v353.6h-71z" fill="#D3E6F8" p-id="5634"></path><path d="M692.6 597H331.4c-6.4 0-11.8-5.2-11.8-11.8V224c0-6.4 5.2-11.8 11.8-11.8h361.2c6.4 0 11.8 5.2 11.8 11.8v361.2c0 6.6-5.2 11.8-11.8 11.8z m-349.6-23.4h337.8V235.8H343v337.8z" fill="#4C4372" p-id="5635"></path><path d="M247.2 11.8C213.4 11.8 186 39 186 72.8V155.6c0 25.8 20.8 46.6 46.6 46.6s46.6-20.8 46.6-46.6V106.8h465.8v48.6c0 25.8 20.8 46.6 46.6 46.6s46.6-20.8 46.6-46.6V72.8c0-33.8-27.4-61-61-61h-530zM326.2 918.2h-48v-48c0-25.4-20.6-46-46-46s-46 20.6-46 46v81c0 33.8 27.4 61 61 61h79c25.4 0 46-20.6 46-46v-2c0-25.4-20.6-46-46-46zM697.8 918.2h48v-48c0-25.4 20.6-46 46-46s46 20.6 46 46v81c0 33.8-27.4 61-61 61h-79c-25.4 0-46-20.6-46-46v-2c0-25.4 20.6-46 46-46z" fill="#FD919E" p-id="5636"></path><path d="M326.2 1024h-79c-40.2 0-72.8-32.6-72.8-72.8v-81c0-31.8 25.8-57.8 57.8-57.8 31.8 0 57.8 25.8 57.8 57.8v36.4h36.4c31.8 0 57.8 25.8 57.8 57.8v2c-0.4 31.8-26.2 57.6-58 57.6zM232 835.8c-19 0-34.2 15.4-34.2 34.2v81c0 27.2 22.2 49.4 49.4 49.4h79c19 0 34.2-15.4 34.2-34.2v-2c0-19-15.4-34.2-34.2-34.2h-48c-6.4 0-11.8-5.2-11.8-11.8v-48c0-19-15.4-34.4-34.4-34.4z" fill="#4C4372" p-id="5637"></path><path d="M805.6 1002.4h-18.6V836h18.6c15.4 0 27.8 12.4 27.8 27.8v110.8c0 15.4-12.4 27.8-27.8 27.8zM805.6 190.2h-18.6V23.6h18.6c15.4 0 27.8 12.4 27.8 27.8v110.8c0 15.4-12.4 28-27.8 28z" fill="#E8677D" p-id="5638"></path><path d="M776.8 1024h-79c-31.8 0-57.8-25.8-57.8-57.8v-2c0-31.8 25.8-57.8 57.8-57.8h36.4V870c0-31.8 25.8-57.8 57.8-57.8 31.8 0 57.8 25.8 57.8 57.8v81c-0.2 40.4-32.8 73-73 73z m-79-94c-19 0-34.2 15.4-34.2 34.2v2c0 19 15.4 34.2 34.2 34.2h79c27.2 0 49.4-22.2 49.4-49.4V870c0-19-15.4-34.2-34.2-34.2-19 0-34.2 15.4-34.2 34.2v48c0 6.4-5.2 11.8-11.8 11.8h-48.2zM791.4 213.8c-32.2 0-58.2-26.2-58.2-58.2V118.6H290.8v37c0 32.2-26.2 58.2-58.2 58.2-32.2 0-58.2-26.2-58.2-58.2V72.8C174.4 32.6 207 0 247.2 0h529.8c40.2 0 72.8 32.6 72.8 72.8v82.8c-0.2 32-26.2 58.2-58.4 58.2zM279.2 95.2h465.8c6.4 0 11.8 5.2 11.8 11.8v48.6c0 19.2 15.6 34.8 34.8 34.8 19.2 0 34.8-15.6 34.8-34.8V72.8c0-27.2-22.2-49.4-49.4-49.4H247.2c-27.2 0-49.4 22.2-49.4 49.4v82.8c0 19.2 15.6 34.8 34.8 34.8 19.2 0 34.8-15.6 34.8-34.8V106.8c0-6.4 5.2-11.6 11.8-11.6z" fill="#4C4372" p-id="5639"></path></svg>