<?xml version="1.0" standalone="no"?><!DOCTYPE svg PUBLIC "-//W3C//DTD SVG 1.1//EN" "http://www.w3.org/Graphics/SVG/1.1/DTD/svg11.dtd"><svg t="1565852379490" class="icon" viewBox="0 0 1024 1024" version="1.1" xmlns="http://www.w3.org/2000/svg" p-id="1031" xmlns:xlink="http://www.w3.org/1999/xlink" width="200" height="200"><defs><style type="text/css"></style></defs><path d="M785.2 931.2H238.8c-29.2 0-53-23.8-53-53V145.8c0-29.2 23.8-53 53-53h546.4c29.2 0 53 23.8 53 53v732.4c0 29.2-23.8 53-53 53zM238.8 112.8c-18.2 0-33 14.8-33 33v732.4c0 18.2 14.8 33 33 33h546.4c18.2 0 33-14.8 33-33V145.8c0-18.2-14.8-33-33-33H238.8z" fill="#0071BC" p-id="1032"></path><path d="M714 809.8H310c-28.8 0-52.3-23.4-52.3-52.3V250c0-28.8 23.4-52.3 52.3-52.3h404c28.8 0 52.3 23.4 52.3 52.3v507.5c-0.1 28.8-23.5 52.3-52.3 52.3zM310 217.4c-17.9 0-32.5 14.6-32.5 32.5v507.5c0 17.9 14.6 32.5 32.5 32.5h404c17.9 0 32.5-14.6 32.5-32.5V250c0-17.9-14.6-32.5-32.5-32.5H310z" fill="#0071BC" p-id="1033"></path><path d="M512 894.6c-9.2 0-17.9-3.6-24.5-10.1-13.5-13.5-13.5-35.5 0-49s35.5-13.5 49 0 13.5 35.5 0 49c-6.6 6.5-15.3 10.1-24.5 10.1z m0-49.2c-3.7 0-7.5 1.4-10.3 4.3-5.7 5.7-5.7 15 0 20.7 2.8 2.8 6.4 4.3 10.3 4.3s7.6-1.5 10.3-4.3c5.7-5.7 5.7-15 0-20.7-2.8-2.9-6.6-4.3-10.3-4.3zM523.4 149.4c-6.3-6.3-16.5-6.3-22.8 0s-6.3 16.5 0 22.8c3.1 3.1 7.3 4.7 11.4 4.7s8.2-1.6 11.4-4.7c6.3-6.3 6.3-16.5 0-22.8z m-11.3 8.3c-0.3 0-0.5 0-0.8 0.1 0.2-0.1 0.5-0.1 0.8-0.1-0.1 0-0.1 0 0 0z" fill="#F15A24" p-id="1034"></path></svg>