<?xml version="1.0" standalone="no"?><!DOCTYPE svg PUBLIC "-//W3C//DTD SVG 1.1//EN" "http://www.w3.org/Graphics/SVG/1.1/DTD/svg11.dtd"><svg t="1565853717967" class="icon" viewBox="0 0 1024 1024" version="1.1" xmlns="http://www.w3.org/2000/svg" p-id="2692" xmlns:xlink="http://www.w3.org/1999/xlink" width="200" height="200"><defs><style type="text/css"></style></defs><path d="M85.041695 85.391661c0-47.095401 38.19627-85.391661 85.291671-85.391661H852.966702c47.095401 0 85.291671 38.19627 85.291671 85.391661v853.216678c0 47.095401-38.19627 85.391661-85.291671 85.391661H170.333366c-47.095401 0-85.291671-38.19627-85.291671-85.391661V85.391661z" fill="#666666" p-id="2693"></path><path d="M127.737526 85.391661c0-23.597696 19.098135-42.69583 42.69583-42.695831H852.966702c23.597696 0 42.69583 19.098135 42.695831 42.695831v853.216678c0 23.597696-19.098135 42.69583-42.695831 42.695831H170.333366c-23.597696 0-42.69583-19.098135-42.695831-42.695831V85.391661h0.099991z" fill="#F9F2FF" p-id="2694"></path><path d="M511.700029 853.216678c23.597696 0 42.69583 19.098135 42.695831 42.695831s-19.098135 42.69583-42.695831 42.69583S469.004199 919.510204 469.004199 895.912509s19.098135-42.69583 42.69583-42.695831z" fill="#666666" p-id="2695"></path><path d="M213.029196 127.987501h597.241676v639.937506H213.029196z" fill="#A1DCFF" p-id="2696"></path></svg>